<svg xmlns="http://www.w3.org/2000/svg" xmlns:xlink="http://www.w3.org/1999/xlink" width="500" viewBox="0 0 375 374.999991" height="500" preserveAspectRatio="xMidYMid meet"><defs><g></g><clipPath id="c6a9bcea10"><path d="M 131.957031 135.464844 L 256.664062 135.464844 L 256.664062 189.792969 L 131.957031 189.792969 Z M 131.957031 135.464844 " clip-rule="nonzero"></path></clipPath><clipPath id="913a36c3d6"><path d="M 168.75 148.644531 L 206.25 148.644531 L 206.25 165.894531 L 168.75 165.894531 Z M 168.75 148.644531 " clip-rule="nonzero"></path></clipPath></defs><g fill="#052a64" fill-opacity="1"><g transform="translate(105.195184, 222.550152)"><g><path d="M 13.984375 -12.6875 L 13.984375 0 L 12.359375 0 L 12.359375 -7.953125 L 7.84375 -1.546875 L 7.796875 -1.546875 L 3.359375 -7.734375 L 3.359375 0 L 1.765625 0 L 1.765625 -12.6875 L 1.78125 -12.6875 L 7.84375 -4.109375 L 13.96875 -12.6875 Z M 13.984375 -12.6875 "></path></g></g></g><g fill="#052a64" fill-opacity="1"><g transform="translate(124.806036, 222.550152)"><g><path d="M 3.421875 -12.296875 L 3.421875 0 L 1.765625 0 L 1.765625 -12.296875 Z M 3.421875 -12.296875 "></path></g></g></g><g fill="#052a64" fill-opacity="1"><g transform="translate(133.847766, 222.550152)"><g><path d="M 12.484375 -12.296875 L 12.484375 0.40625 L 12.421875 0.40625 L 3.40625 -8.75 L 3.4375 0 L 1.765625 0 L 1.765625 -12.671875 L 1.859375 -12.671875 L 10.859375 -3.40625 L 10.828125 -12.296875 Z M 12.484375 -12.296875 "></path></g></g></g><g fill="#052a64" fill-opacity="1"><g transform="translate(151.946316, 222.550152)"><g><path d="M 1.765625 -12.296875 L 5.140625 -12.296875 C 6.660156 -12.296875 7.921875 -11.988281 8.921875 -11.375 C 9.929688 -10.769531 10.664062 -9.988281 11.125 -9.03125 C 11.582031 -8.070312 11.8125 -7.0625 11.8125 -6 C 11.8125 -4.8125 11.535156 -3.757812 10.984375 -2.84375 C 10.429688 -1.9375 9.6875 -1.234375 8.75 -0.734375 C 7.820312 -0.242188 6.816406 0 5.734375 0 L 1.765625 0 Z M 5.40625 -1.59375 C 6.3125 -1.59375 7.117188 -1.769531 7.828125 -2.125 C 8.546875 -2.488281 9.101562 -3.007812 9.5 -3.6875 C 9.90625 -4.363281 10.109375 -5.175781 10.109375 -6.125 C 10.109375 -7.082031 9.898438 -7.90625 9.484375 -8.59375 C 9.066406 -9.289062 8.507812 -9.816406 7.8125 -10.171875 C 7.113281 -10.523438 6.363281 -10.703125 5.5625 -10.703125 L 3.421875 -10.703125 L 3.421875 -1.59375 Z M 5.40625 -1.59375 "></path></g></g></g><g fill="#052a64" fill-opacity="1"><g transform="translate(168.617524, 222.550152)"><g></g></g></g><g fill="#052a64" fill-opacity="1"><g transform="translate(177.846171, 222.550152)"><g><path d="M 11.515625 0 L 9.859375 0 L 9.859375 -5.390625 L 3.421875 -5.390625 L 3.421875 0 L 1.765625 0 L 1.765625 -12.296875 L 3.421875 -12.296875 L 3.421875 -6.96875 L 9.859375 -6.96875 L 9.859375 -12.296875 L 11.515625 -12.296875 Z M 11.515625 0 "></path></g></g></g><g fill="#052a64" fill-opacity="1"><g transform="translate(194.976161, 222.550152)"><g><path d="M 9.765625 -12.296875 L 9.765625 -10.703125 L 3.421875 -10.703125 L 3.421875 -6.96875 L 9.078125 -6.96875 L 9.078125 -5.390625 L 3.421875 -5.390625 L 3.421875 -1.59375 L 10 -1.59375 L 10 0 L 1.765625 0 L 1.765625 -12.296875 Z M 9.765625 -12.296875 "></path></g></g></g><g fill="#052a64" fill-opacity="1"><g transform="translate(209.931162, 222.550152)"><g><path d="M 3.421875 -12.296875 L 3.421875 -1.59375 L 9.671875 -1.59375 L 9.671875 0 L 1.765625 0 L 1.765625 -12.296875 Z M 3.421875 -12.296875 "></path></g></g></g><g fill="#052a64" fill-opacity="1"><g transform="translate(224.359414, 222.550152)"><g><path d="M 5.0625 -12.296875 C 6.40625 -12.296875 7.453125 -11.957031 8.203125 -11.28125 C 8.953125 -10.613281 9.328125 -9.679688 9.328125 -8.484375 C 9.328125 -7.796875 9.1875 -7.148438 8.90625 -6.546875 C 8.632812 -5.941406 8.1875 -5.453125 7.5625 -5.078125 C 6.945312 -4.703125 6.171875 -4.515625 5.234375 -4.515625 L 3.421875 -4.515625 L 3.421875 0 L 1.765625 0 L 1.765625 -12.296875 Z M 5.234375 -6.125 C 5.828125 -6.125 6.304688 -6.25 6.671875 -6.5 C 7.035156 -6.75 7.296875 -7.050781 7.453125 -7.40625 C 7.617188 -7.757812 7.703125 -8.109375 7.703125 -8.453125 C 7.703125 -9.035156 7.507812 -9.554688 7.125 -10.015625 C 6.738281 -10.472656 6.140625 -10.703125 5.328125 -10.703125 L 3.421875 -10.703125 L 3.421875 -6.125 Z M 5.234375 -6.125 "></path></g></g></g><g fill="#052a64" fill-opacity="1"><g transform="translate(238.328873, 222.550152)"><g></g></g></g><g fill="#052a64" fill-opacity="1"><g transform="translate(247.557525, 222.550152)"><g><path d="M 8.53125 -1.59375 L 8.53125 0 L 0.921875 0 L 1.484375 -0.5625 C 2.640625 -1.71875 3.539062 -2.648438 4.1875 -3.359375 C 4.832031 -4.078125 5.367188 -4.800781 5.796875 -5.53125 C 6.234375 -6.257812 6.453125 -6.953125 6.453125 -7.609375 C 6.453125 -8.304688 6.25 -8.832031 5.84375 -9.1875 C 5.4375 -9.550781 4.941406 -9.734375 4.359375 -9.734375 C 3.890625 -9.734375 3.5 -9.632812 3.1875 -9.4375 C 2.875 -9.25 2.644531 -9.007812 2.5 -8.71875 C 2.363281 -8.425781 2.296875 -8.132812 2.296875 -7.84375 C 2.296875 -7.113281 2.515625 -6.515625 2.953125 -6.046875 L 1.953125 -5.140625 C 1.578125 -5.359375 1.273438 -5.738281 1.046875 -6.28125 C 0.816406 -6.820312 0.703125 -7.328125 0.703125 -7.796875 C 0.703125 -8.421875 0.851562 -9.003906 1.15625 -9.546875 C 1.46875 -10.085938 1.921875 -10.519531 2.515625 -10.84375 C 3.109375 -11.164062 3.8125 -11.328125 4.625 -11.328125 C 5.3125 -11.328125 5.925781 -11.164062 6.46875 -10.84375 C 7.007812 -10.519531 7.425781 -10.082031 7.71875 -9.53125 C 8.007812 -8.988281 8.15625 -8.394531 8.15625 -7.75 C 8.15625 -7.101562 8 -6.457031 7.6875 -5.8125 C 7.382812 -5.164062 7.007812 -4.554688 6.5625 -3.984375 C 6.125 -3.421875 5.53125 -2.722656 4.78125 -1.890625 L 4.515625 -1.59375 Z M 8.53125 -1.59375 "></path></g></g></g><g fill="#052a64" fill-opacity="1"><g transform="translate(260.677375, 222.550152)"><g><path d="M 8.515625 -3.984375 L 8.515625 -2.703125 L 7.0625 -2.703125 L 7.0625 0 L 5.40625 0 L 5.40625 -2.703125 L 0.21875 -2.703125 L 0.21875 -2.71875 L 7.03125 -11.328125 L 7.0625 -11.328125 L 7.0625 -3.984375 Z M 5.40625 -3.984375 L 5.40625 -7.46875 L 2.703125 -3.984375 Z M 5.40625 -3.984375 "></path></g></g></g><g clip-path="url(#c6a9bcea10)"><path fill="#052a64" d="M 256.324219 172.558594 C 256.238281 172.542969 256.101562 172.5625 256.054688 172.617188 C 255.457031 173.351562 254.875 174.085938 254.277344 174.8125 C 253.347656 175.941406 252.371094 177.03125 251.289062 178.027344 C 248.503906 180.609375 245.359375 182.644531 241.929688 184.25 C 240.027344 185.136719 238.0625 185.835938 236.050781 186.417969 C 233.089844 187.265625 230.089844 187.960938 227.03125 188.386719 C 225.78125 188.5625 224.53125 188.621094 223.28125 188.742188 C 220.039062 189.039062 216.796875 188.910156 213.582031 188.503906 C 209.890625 188.042969 206.300781 187.128906 202.792969 185.859375 C 198.011719 184.136719 193.476562 181.882812 189.167969 179.191406 C 188.597656 178.839844 187.960938 178.433594 187.347656 177.972656 L 189.316406 176.34375 C 194.167969 172.402344 198.535156 167.992188 202.257812 162.964844 C 203.8125 160.859375 205.226562 158.660156 206.4375 156.339844 C 207.289062 154.71875 208.042969 153.050781 208.542969 151.28125 C 209.199219 148.945312 209.546875 146.589844 209.0625 144.160156 C 208.398438 140.8125 206.613281 138.320312 203.582031 136.746094 C 201.878906 135.859375 200.046875 135.523438 198.128906 135.566406 C 195.863281 135.617188 193.824219 136.304688 192.007812 137.664062 C 190.183594 139.035156 188.703125 140.695312 187.582031 142.679688 C 187.453125 142.90625 187.316406 143.125 187.160156 143.332031 C 187.125 143.375 186.929688 143.375 186.894531 143.324219 C 186.160156 142.4375 185.425781 141.554688 184.519531 140.839844 C 183.195312 139.800781 181.789062 138.902344 180.269531 138.175781 C 178.949219 137.539062 177.542969 137.121094 176.078125 136.953125 C 173.710938 136.6875 171.496094 137.128906 169.535156 138.554688 C 168.421875 139.359375 167.492188 140.339844 166.773438 141.511719 C 165.34375 143.832031 164.585938 146.367188 164.542969 149.089844 C 164.5 151.792969 165.09375 154.378906 166.1875 156.847656 C 167.441406 159.675781 168.996094 162.339844 170.929688 164.761719 C 173.578125 168.089844 176.566406 171.074219 179.804688 173.824219 C 181.320312 175.113281 182.882812 176.335938 184.496094 177.496094 C 184.707031 177.652344 184.90625 177.820312 185.105469 177.984375 C 185.261719 178.109375 185.460938 178.253906 185.460938 178.253906 C 182.726562 180.027344 180.085938 181.757812 177.117188 183.125 C 175.929688 183.667969 174.730469 184.195312 173.5 184.632812 C 169.558594 186.042969 165.523438 187.097656 161.359375 187.617188 C 157.816406 188.054688 154.277344 188.117188 150.734375 187.625 C 149.902344 187.503906 149.085938 187.34375 148.257812 187.199219 C 146.355469 186.867188 144.445312 186.585938 142.550781 186.1875 C 140.707031 185.800781 138.847656 185.5625 136.785156 185.226562 C 135.554688 185.105469 134.152344 185.003906 132.742188 185.03125 C 132.550781 185.148438 132.328125 185.230469 132.074219 185.273438 C 132.0625 185.4375 132.019531 185.605469 131.957031 185.777344 C 132.050781 185.871094 132.140625 185.972656 132.226562 186.078125 C 132.03125 185.828125 132.132812 185.9375 132.265625 186.082031 C 132.402344 186.089844 132.546875 186.097656 132.703125 186.097656 C 132.898438 186.101562 133.085938 186.140625 133.261719 186.195312 C 133.519531 186.1875 133.777344 186.183594 134.039062 186.183594 C 135.972656 186.199219 137.898438 186.421875 139.808594 186.730469 C 140.476562 186.835938 141.140625 186.996094 141.808594 187.117188 C 143.554688 187.421875 145.3125 187.691406 147.054688 188.042969 C 148.953125 188.421875 150.871094 188.632812 152.792969 188.816406 C 155.878906 189.109375 158.960938 188.992188 162.015625 188.535156 C 170.578125 187.265625 178.421875 184.144531 185.582031 179.277344 C 185.851562 179.097656 186.101562 178.902344 186.355469 178.703125 C 189.921875 180.980469 194.480469 183.5625 198.367188 185.222656 C 203.832031 187.554688 209.472656 189.191406 215.425781 189.660156 C 218.878906 189.933594 222.328125 189.820312 225.753906 189.433594 C 228.824219 189.089844 231.832031 188.429688 234.808594 187.589844 C 238.144531 186.660156 241.351562 185.4375 244.414062 183.804688 C 249.113281 181.300781 253.007812 177.886719 256.144531 173.601562 C 256.300781 173.394531 256.40625 173.148438 256.523438 172.917969 C 256.582031 172.792969 256.488281 172.558594 256.324219 172.558594 Z M 186.5 177.417969 C 181.597656 173.894531 176.542969 169.421875 172.765625 164.691406 C 171.066406 162.570312 169.617188 160.277344 168.398438 157.835938 C 167.554688 156.140625 166.90625 154.386719 166.550781 152.527344 C 166.113281 150.238281 166.0625 147.957031 166.710938 145.699219 C 167.03125 144.59375 167.472656 143.535156 168.074219 142.542969 C 168.472656 141.871094 168.960938 141.257812 169.507812 140.6875 C 170.957031 139.183594 172.734375 138.425781 174.820312 138.367188 C 176.144531 138.320312 177.417969 138.503906 178.671875 138.925781 C 180.828125 139.660156 182.757812 140.78125 184.480469 142.257812 C 185.15625 142.832031 185.769531 143.480469 186.21875 144.261719 C 186.417969 144.605469 186.46875 144.929688 186.304688 145.300781 C 186.25 145.429688 186.238281 145.617188 186.28125 145.734375 C 186.332031 145.859375 186.472656 145.96875 186.605469 146.027344 C 186.667969 146.0625 186.816406 146.003906 186.878906 145.941406 C 187.023438 145.796875 187.167969 145.636719 187.265625 145.460938 C 188.214844 143.761719 189.449219 142.273438 190.609375 140.726562 C 191.242188 139.890625 192.003906 139.171875 192.84375 138.546875 C 195.144531 136.84375 197.699219 136.203125 200.535156 136.714844 C 201.953125 136.972656 203.257812 137.449219 204.429688 138.273438 C 206.3125 139.585938 207.492188 141.382812 208.078125 143.582031 C 208.347656 144.59375 208.496094 145.628906 208.449219 146.5 C 208.449219 148.644531 207.984375 150.519531 207.335938 152.34375 C 206.804688 153.824219 206.117188 155.230469 205.367188 156.609375 C 203.621094 159.839844 201.507812 162.820312 199.167969 165.636719 C 195.710938 169.789062 191.796875 173.464844 187.511719 176.753906 C 187.261719 176.949219 186.8125 177.292969 186.542969 177.441406 Z M 186.5 177.417969 " fill-opacity="1" fill-rule="nonzero"></path></g><g fill="#052a64" fill-opacity="1"><g transform="translate(89.014639, 197.056228)"><g><path d="M 0.980469 6.394531 C 1.269531 6.394531 1.5 6.28125 1.730469 6.050781 C 2.132812 5.589844 2.476562 5.070312 2.765625 4.496094 C 3.167969 3.746094 3.515625 3.054688 3.859375 2.304688 C 4.148438 1.554688 4.496094 0.863281 4.839844 0.117188 C 5.589844 -1.554688 6.394531 -3.167969 7.144531 -4.839844 C 7.894531 -6.453125 8.644531 -8.066406 9.390625 -9.679688 C 12.042969 -15.152344 16.363281 -22.355469 21.261719 -26.042969 C 21.433594 -26.101562 21.550781 -26.214844 21.722656 -26.332031 C 21.894531 -26.390625 22.066406 -26.503906 22.242188 -26.5625 L 22.355469 -26.5625 C 22.527344 -26.5625 22.644531 -26.503906 22.644531 -26.332031 C 22.644531 -26.101562 22.644531 -25.871094 22.644531 -25.640625 C 22.644531 -25.410156 22.585938 -25.179688 22.527344 -25.007812 C 22.296875 -23.394531 21.835938 -21.835938 21.375 -20.28125 C 20.628906 -17.804688 19.820312 -15.328125 19.128906 -12.847656 C 18.667969 -11.0625 18.324219 -9.335938 18.148438 -7.316406 C 18.207031 -7.144531 18.207031 -6.914062 18.207031 -6.683594 C 18.148438 -6.453125 18.207031 -6.222656 18.265625 -5.992188 C 18.4375 -5.011719 18.898438 -4.550781 19.589844 -4.550781 C 19.9375 -4.550781 20.28125 -4.667969 20.628906 -4.898438 C 21.144531 -5.1875 21.664062 -5.648438 22.183594 -6.28125 C 22.816406 -7.085938 23.449219 -7.894531 24.027344 -8.644531 C 25.46875 -10.660156 26.90625 -12.445312 28.519531 -14.230469 C 28.808594 -14.460938 29.039062 -14.691406 29.269531 -14.980469 C 29.5 -15.210938 29.789062 -15.441406 30.078125 -15.613281 C 30.363281 -15.789062 30.59375 -15.902344 30.769531 -15.902344 C 31.460938 -15.902344 31.574219 -14.808594 31.746094 -14.289062 C 31.804688 -13.769531 31.921875 -13.308594 31.976562 -12.847656 C 32.035156 -12.332031 32.152344 -11.8125 32.207031 -11.292969 C 32.324219 -10.601562 32.4375 -9.910156 32.554688 -9.21875 C 32.667969 -8.46875 32.785156 -7.777344 32.957031 -7.03125 C 33.304688 -5.417969 34.800781 -3.226562 36.472656 -3.226562 C 36.933594 -3.226562 37.507812 -3.398438 38.199219 -3.6875 C 39.46875 -4.378906 44.539062 -10.660156 45 -12.101562 C 45.058594 -12.386719 45 -12.5625 44.710938 -12.675781 C 44.652344 -12.734375 44.480469 -12.792969 44.308594 -12.792969 C 44.136719 -12.792969 44.078125 -12.792969 44.019531 -12.734375 C 43.847656 -12.675781 43.730469 -12.5625 43.558594 -12.386719 C 42.117188 -10.429688 40.964844 -8.875 40.101562 -7.664062 C 39.238281 -6.453125 38.605469 -5.761719 38.316406 -5.53125 C 37.683594 -5.011719 37.105469 -4.78125 36.585938 -4.78125 C 34.742188 -4.78125 34.28125 -7.835938 33.9375 -9.507812 L 33.246094 -14.578125 C 32.957031 -16.132812 32.496094 -17.457031 30.652344 -17.457031 C 30.019531 -17.402344 29.5 -17.171875 28.980469 -16.710938 C 28.117188 -15.960938 27.425781 -15.269531 26.734375 -14.40625 C 25.121094 -12.617188 23.796875 -10.832031 22.355469 -8.929688 C 21.835938 -8.183594 21.203125 -7.492188 20.570312 -6.800781 C 20.453125 -6.625 20.28125 -6.511719 20.109375 -6.511719 C 19.992188 -6.511719 19.9375 -6.511719 19.878906 -6.570312 C 19.707031 -6.683594 19.648438 -6.914062 19.648438 -7.203125 C 19.648438 -8.527344 19.9375 -9.738281 20.222656 -10.949219 C 20.859375 -13.539062 21.550781 -16.019531 22.414062 -18.554688 C 23.046875 -20.570312 23.625 -22.527344 24.027344 -24.546875 C 24.199219 -25.410156 24.257812 -26.332031 24.085938 -27.195312 C 23.855469 -28.117188 23.277344 -28.347656 22.414062 -28.347656 C 22.242188 -28.289062 22.066406 -28.234375 21.894531 -28.175781 C 21.722656 -28.117188 21.550781 -28.003906 21.375 -27.945312 C 15.097656 -23.738281 10.140625 -14.980469 6.972656 -8.183594 C 6.339844 -6.742188 5.648438 -5.359375 5.011719 -3.917969 C 4.378906 -2.476562 3.6875 -1.039062 3.054688 0.402344 C 2.9375 0.691406 2.824219 0.980469 2.707031 1.269531 C 2.535156 1.554688 2.421875 1.84375 2.304688 2.132812 C 2.246094 2.191406 2.191406 2.304688 2.132812 2.421875 C 2.074219 2.535156 1.960938 2.59375 1.785156 2.59375 C 1.613281 2.59375 1.5 2.535156 1.554688 2.421875 C 1.554688 2.246094 1.554688 2.132812 1.554688 2.015625 C 1.554688 1.785156 1.613281 1.5 1.671875 1.09375 C 2.132812 -2.59375 2.882812 -6.109375 3.976562 -9.566406 C 4.726562 -12.101562 5.53125 -14.636719 6.394531 -17.113281 C 7.203125 -19.589844 8.007812 -22.125 8.816406 -24.660156 C 9.21875 -25.871094 9.566406 -27.023438 9.910156 -28.234375 C 10.199219 -29.386719 10.601562 -30.539062 11.0625 -31.691406 C 11.234375 -32.09375 11.179688 -32.4375 10.773438 -32.667969 C 10.71875 -32.726562 10.660156 -32.726562 10.488281 -32.726562 C 10.257812 -32.726562 10.027344 -32.613281 9.796875 -32.324219 C 9.621094 -32.035156 9.449219 -31.691406 9.335938 -31.402344 C 9.21875 -31.054688 9.105469 -30.710938 8.988281 -30.421875 L 5.359375 -18.898438 C 3.746094 -13.828125 2.074219 -8.929688 0.980469 -3.6875 C 0.460938 -1.152344 -0.0585938 1.269531 0 3.976562 C 0 4.265625 0 4.496094 0 4.78125 C 0 5.070312 0.0585938 5.359375 0.117188 5.648438 C 0.230469 6.164062 0.519531 6.394531 0.980469 6.394531 Z M 0.980469 6.394531 "></path></g></g></g><g fill="#052a64" fill-opacity="1"><g transform="translate(253.945627, 189.380576)"><g><path d="M 1.25 2.105469 C 1.449219 2.105469 1.710938 1.976562 2.042969 1.777344 C 2.503906 1.449219 2.832031 0.988281 3.09375 0.394531 C 3.621094 -0.527344 4.148438 -1.449219 4.609375 -2.4375 C 6.453125 -6.253906 8.957031 -11.457031 11.851562 -14.683594 C 12.050781 -14.882812 12.3125 -15.144531 12.644531 -15.34375 C 12.707031 -15.410156 12.773438 -15.410156 12.839844 -15.410156 C 13.039062 -15.410156 13.105469 -15.34375 13.105469 -15.144531 C 13.167969 -14.816406 13.167969 -14.550781 13.167969 -14.289062 C 13.167969 -14.027344 13.167969 -13.761719 13.167969 -13.433594 C 13.105469 -12.050781 13.105469 -10.667969 13.367188 -9.351562 C 13.695312 -7.769531 14.550781 -6.980469 15.871094 -6.980469 C 17.582031 -6.980469 24.691406 -11.785156 25.21875 -13.695312 C 25.285156 -14.027344 25.152344 -14.289062 24.890625 -14.488281 C 24.824219 -14.550781 24.757812 -14.550781 24.691406 -14.617188 C 24.625 -14.683594 24.496094 -14.683594 24.429688 -14.683594 C 24.296875 -14.683594 24.164062 -14.617188 24.101562 -14.550781 C 23.835938 -14.355469 23.574219 -14.089844 23.375 -13.828125 C 22.125 -12.578125 18.304688 -9.679688 16.726562 -8.957031 C 16.460938 -8.824219 16.199219 -8.757812 15.933594 -8.757812 C 15.472656 -8.757812 15.144531 -9.152344 15.011719 -9.878906 C 14.949219 -10.140625 14.882812 -10.402344 14.882812 -10.734375 C 14.882812 -10.996094 14.882812 -11.261719 14.882812 -11.589844 C 14.816406 -12.117188 14.816406 -12.644531 14.882812 -13.167969 C 14.882812 -13.695312 14.882812 -14.222656 14.882812 -14.816406 C 14.882812 -15.078125 14.882812 -15.34375 14.949219 -15.671875 C 14.949219 -15.933594 14.882812 -16.199219 14.816406 -16.527344 C 14.683594 -17.382812 14.222656 -17.84375 13.433594 -17.84375 C 13.039062 -17.84375 12.707031 -17.714844 12.445312 -17.515625 C 9.019531 -15.144531 4.9375 -7.175781 3.160156 -3.425781 C 2.964844 -3.09375 2.832031 -2.765625 2.699219 -2.4375 C 2.566406 -2.105469 2.304688 -1.777344 1.84375 -1.449219 C 1.777344 -1.910156 1.710938 -2.042969 1.710938 -2.304688 C 1.710938 -6.914062 3.753906 -17.515625 6.320312 -21.597656 C 9.746094 -26.867188 12.378906 -32.265625 14.949219 -37.992188 C 15.078125 -38.324219 15.210938 -38.652344 15.34375 -38.980469 C 15.472656 -39.3125 15.605469 -39.640625 15.671875 -39.96875 C 15.738281 -40.167969 15.804688 -40.296875 15.804688 -40.496094 C 15.804688 -40.695312 15.804688 -40.824219 15.804688 -41.023438 C 15.804688 -41.351562 15.605469 -41.550781 15.144531 -41.550781 C 15.078125 -41.550781 15.011719 -41.550781 14.949219 -41.484375 C 14.617188 -41.285156 14.289062 -41.089844 14.089844 -40.890625 C 9.613281 -35.03125 6.125 -27.589844 3.820312 -20.675781 C 3.554688 -19.953125 3.292969 -19.292969 3.09375 -18.636719 C 2.832031 -17.976562 2.503906 -17.316406 2.042969 -16.726562 C 1.976562 -16.527344 1.84375 -16.394531 1.777344 -16.199219 C 1.644531 -16 1.644531 -15.738281 1.710938 -15.539062 C 1.910156 -15.078125 1.976562 -14.617188 1.910156 -14.222656 C 1.777344 -13.828125 1.644531 -13.433594 1.582031 -13.039062 C 1.449219 -12.183594 1.316406 -11.324219 1.121094 -10.535156 C 0.921875 -9.679688 0.722656 -8.824219 0.59375 -7.96875 C 0.132812 -5.398438 -0.199219 -3.027344 0 -0.460938 C 0 0.132812 0.0664062 0.722656 0.199219 1.25 C 0.394531 1.84375 0.789062 2.105469 1.25 2.105469 Z M 9.21875 -29.5 C 9.546875 -29.828125 9.613281 -30.15625 9.679688 -30.617188 C 9.746094 -30.289062 9.613281 -29.960938 9.285156 -29.566406 L 9.285156 -29.5 Z M 9.8125 -30.75 C 10.007812 -30.949219 10.140625 -31.015625 10.207031 -31.078125 Z M 10.402344 -31.410156 L 10.601562 -31.9375 C 10.535156 -31.871094 10.535156 -31.738281 10.535156 -31.671875 C 10.535156 -31.605469 10.46875 -31.476562 10.402344 -31.410156 Z M 10.402344 -31.410156 "></path></g></g></g><g clip-path="url(#913a36c3d6)"><path fill="#81a0db" d="M 203.441406 157.269531 L 200.664062 157.21875 L 195.109375 157.132812 C 195.027344 157.132812 194.949219 157.183594 194.925781 157.265625 L 194.921875 157.269531 L 193.800781 160.679688 L 193.460938 159.398438 L 192.902344 157.308594 L 191.777344 153.132812 C 191.753906 153.042969 191.6875 152.960938 191.597656 152.917969 C 191.429688 152.847656 191.238281 152.921875 191.164062 153.085938 L 191.164062 153.089844 L 190.25 155.136719 L 189.4375 156.972656 L 187.183594 156.960938 C 187.039062 156.960938 186.902344 157.042969 186.84375 157.179688 L 186.84375 157.183594 L 185.5 160.308594 L 184.792969 157.265625 L 183.816406 153.070312 C 183.777344 152.917969 183.652344 152.789062 183.484375 152.765625 C 183.265625 152.730469 183.058594 152.878906 183.023438 153.097656 L 182.011719 159.375 L 181.425781 163.097656 L 180.632812 157.285156 L 180.046875 153.09375 L 179.460938 148.90625 L 179.457031 148.898438 C 179.445312 148.792969 179.363281 148.703125 179.253906 148.679688 C 179.113281 148.648438 178.972656 148.738281 178.941406 148.878906 L 178.003906 153.085938 L 177.539062 155.1875 L 177.105469 157.175781 L 175.117188 157.207031 L 173.007812 157.242188 L 170.894531 157.28125 L 168.785156 157.328125 L 170.894531 157.375 L 173.007812 157.414062 L 175.117188 157.453125 L 177.230469 157.484375 C 177.300781 157.484375 177.363281 157.4375 177.378906 157.367188 L 177.902344 155.273438 L 178.421875 153.183594 L 179.109375 150.402344 L 179.191406 151.074219 L 179.445312 153.171875 L 179.960938 157.371094 L 181.019531 165.769531 C 181.039062 165.929688 181.164062 166.066406 181.335938 166.097656 C 181.542969 166.128906 181.738281 165.988281 181.773438 165.78125 L 181.773438 165.777344 L 182.804688 159.503906 L 183.496094 155.238281 L 184.015625 157.449219 L 185.007812 161.640625 L 185.011719 161.644531 C 185.039062 161.761719 185.121094 161.863281 185.238281 161.914062 C 185.4375 161.996094 185.664062 161.902344 185.746094 161.703125 L 187.425781 157.695312 L 189.667969 157.683594 L 189.671875 157.683594 C 189.808594 157.683594 189.9375 157.605469 189.996094 157.472656 L 190.882812 155.414062 L 191.402344 154.199219 L 192.339844 157.464844 L 192.9375 159.542969 L 193.539062 161.617188 L 193.539062 161.625 C 193.5625 161.703125 193.625 161.765625 193.707031 161.792969 C 193.835938 161.832031 193.972656 161.757812 194.011719 161.625 L 195.253906 157.519531 L 197.886719 157.484375 L 203.441406 157.390625 L 206.214844 157.328125 L 203.441406 157.269531 " fill-opacity="1" fill-rule="nonzero"></path></g><g fill="#052a64" fill-opacity="1"><g transform="translate(139.791327, 241.30916)"><g><path d="M 1.449219 -3.371094 L 1.449219 -6.128906 L 3.027344 -6.128906 C 3.4375 -6.128906 3.769531 -6 4.019531 -5.75 C 4.257812 -5.488281 4.390625 -5.167969 4.390625 -4.769531 C 4.390625 -4.359375 4.257812 -4.027344 4 -3.757812 C 3.738281 -3.5 3.417969 -3.371094 3.027344 -3.371094 Z M 5.089844 -4.75 C 5.089844 -5.347656 4.867188 -5.839844 4.449219 -6.226562 C 4.027344 -6.609375 3.527344 -6.796875 2.929688 -6.796875 L 0.75 -6.796875 L 0.75 0 L 1.449219 0 L 1.449219 -2.6875 L 2.929688 -2.6875 C 3.527344 -2.6875 4.039062 -2.878906 4.449219 -3.257812 C 4.867188 -3.660156 5.089844 -4.148438 5.089844 -4.75 Z M 5.089844 -4.75 "></path></g></g></g><g fill="#052a64" fill-opacity="1"><g transform="translate(147.349405, 241.30916)"><g><path d="M 2.628906 -3.199219 C 3.507812 -2.988281 4.109375 -2.757812 4.429688 -2.5 C 4.648438 -2.320312 4.757812 -2.089844 4.757812 -1.808594 C 4.757812 -1.53125 4.699219 -1.300781 4.578125 -1.140625 C 4.277344 -0.71875 3.738281 -0.511719 2.980469 -0.511719 C 1.917969 -0.511719 1.320312 -0.871094 1.191406 -1.589844 L 0.371094 -1.589844 C 0.609375 -0.441406 1.480469 0.128906 2.980469 0.128906 C 3.648438 0.128906 4.207031 -0.0117188 4.660156 -0.308594 C 5.199219 -0.660156 5.480469 -1.179688 5.480469 -1.859375 C 5.480469 -2.417969 5.257812 -2.847656 4.820312 -3.148438 C 4.507812 -3.371094 4.007812 -3.570312 3.320312 -3.75 C 2.621094 -3.929688 2.167969 -4.078125 1.960938 -4.1875 C 1.5 -4.417969 1.269531 -4.738281 1.28125 -5.160156 C 1.28125 -5.378906 1.320312 -5.570312 1.417969 -5.707031 C 1.679688 -6.097656 2.140625 -6.296875 2.800781 -6.296875 C 3.730469 -6.296875 4.257812 -6 4.398438 -5.417969 L 5.160156 -5.417969 C 4.910156 -6.398438 4.117188 -6.898438 2.800781 -6.898438 C 2.199219 -6.898438 1.667969 -6.738281 1.230469 -6.417969 C 0.78125 -6.097656 0.550781 -5.628906 0.550781 -4.988281 C 0.550781 -4.117188 1.25 -3.519531 2.628906 -3.199219 Z M 2.628906 -3.199219 "></path></g></g></g><g fill="#052a64" fill-opacity="1"><g transform="translate(155.357305, 241.30916)"><g><path d="M 3.378906 -3.199219 L 5.949219 -6.796875 L 5.058594 -6.796875 L 3.027344 -3.890625 L 1 -6.796875 L 0.101562 -6.796875 L 2.679688 -3.1875 L 2.679688 0 L 3.378906 0 Z M 3.378906 -3.199219 "></path></g></g></g><g fill="#052a64" fill-opacity="1"><g transform="translate(163.675088, 241.30916)"><g><path d="M 6.988281 -2.078125 L 6.21875 -2.078125 C 5.976562 -1.640625 5.648438 -1.28125 5.230469 -1.019531 C 4.808594 -0.75 4.339844 -0.621094 3.839844 -0.621094 C 3.089844 -0.621094 2.449219 -0.890625 1.917969 -1.449219 C 1.398438 -1.980469 1.148438 -2.628906 1.148438 -3.390625 C 1.148438 -4.148438 1.398438 -4.796875 1.917969 -5.339844 C 2.160156 -5.589844 2.449219 -5.789062 2.78125 -5.9375 C 3.097656 -6.089844 3.417969 -6.167969 3.738281 -6.167969 C 4.050781 -6.167969 4.320312 -6.128906 4.558594 -6.058594 C 5.289062 -5.839844 5.839844 -5.398438 6.207031 -4.730469 L 6.976562 -4.730469 C 6.71875 -5.367188 6.308594 -5.886719 5.738281 -6.289062 C 5.160156 -6.6875 4.527344 -6.886719 3.839844 -6.886719 C 2.890625 -6.886719 2.089844 -6.539062 1.429688 -5.847656 C 1.121094 -5.527344 0.878906 -5.148438 0.710938 -4.730469 C 0.53125 -4.308594 0.449219 -3.859375 0.449219 -3.390625 C 0.449219 -2.429688 0.769531 -1.621094 1.429688 -0.941406 C 2.089844 -0.238281 2.890625 0.101562 3.839844 0.101562 C 4.527344 0.101562 5.160156 -0.101562 5.75 -0.5 C 6.320312 -0.898438 6.726562 -1.417969 6.988281 -2.078125 Z M 6.988281 -2.078125 "></path></g></g></g><g fill="#052a64" fill-opacity="1"><g transform="translate(173.23238, 241.30916)"><g><path d="M 1.449219 0 L 1.449219 -3.039062 L 4.539062 -3.039062 L 4.539062 0 L 5.238281 0 L 5.238281 -6.796875 L 4.539062 -6.796875 L 4.539062 -3.738281 L 1.449219 -3.738281 L 1.449219 -6.796875 L 0.75 -6.796875 L 0.75 0 Z M 1.449219 0 "></path></g></g></g><g fill="#052a64" fill-opacity="1"><g transform="translate(181.490184, 241.30916)"><g><path d="M 6.738281 -3.417969 C 6.738281 -2.640625 6.457031 -1.980469 5.917969 -1.441406 C 5.367188 -0.890625 4.707031 -0.621094 3.9375 -0.621094 C 3.167969 -0.621094 2.507812 -0.890625 1.96875 -1.441406 C 1.417969 -1.980469 1.148438 -2.640625 1.148438 -3.417969 C 1.148438 -4.179688 1.417969 -4.839844 1.96875 -5.386719 C 2.507812 -5.929688 3.167969 -6.207031 3.9375 -6.207031 C 4.707031 -6.207031 5.367188 -5.929688 5.917969 -5.386719 C 6.457031 -4.839844 6.738281 -4.179688 6.738281 -3.417969 Z M 7.4375 -3.417969 C 7.4375 -3.898438 7.339844 -4.347656 7.160156 -4.777344 C 6.976562 -5.199219 6.726562 -5.570312 6.410156 -5.886719 C 6.089844 -6.199219 5.71875 -6.449219 5.296875 -6.628906 C 4.867188 -6.808594 4.417969 -6.910156 3.9375 -6.910156 C 3.460938 -6.910156 3 -6.808594 2.578125 -6.628906 C 2.160156 -6.449219 1.789062 -6.199219 1.46875 -5.886719 C 1.148438 -5.570312 0.898438 -5.199219 0.71875 -4.777344 C 0.539062 -4.347656 0.449219 -3.898438 0.449219 -3.417969 C 0.449219 -2.9375 0.539062 -2.480469 0.71875 -2.058594 C 0.898438 -1.628906 1.148438 -1.257812 1.46875 -0.941406 C 1.789062 -0.621094 2.160156 -0.371094 2.578125 -0.191406 C 3 -0.0117188 3.460938 0.078125 3.9375 0.078125 C 4.417969 0.078125 4.867188 -0.0117188 5.296875 -0.191406 C 5.71875 -0.371094 6.089844 -0.621094 6.410156 -0.941406 C 6.726562 -1.257812 6.976562 -1.628906 7.160156 -2.058594 C 7.339844 -2.480469 7.4375 -2.9375 7.4375 -3.417969 Z M 7.4375 -3.417969 "></path></g></g></g><g fill="#052a64" fill-opacity="1"><g transform="translate(191.647239, 241.30916)"><g><path d="M 1.449219 -0.699219 L 1.449219 -6.796875 L 0.75 -6.796875 L 0.75 0 L 3.878906 0 L 3.878906 -0.699219 Z M 1.449219 -0.699219 "></path></g></g></g><g fill="#052a64" fill-opacity="1"><g transform="translate(197.995791, 241.30916)"><g><path d="M 6.738281 -3.417969 C 6.738281 -2.640625 6.457031 -1.980469 5.917969 -1.441406 C 5.367188 -0.890625 4.707031 -0.621094 3.9375 -0.621094 C 3.167969 -0.621094 2.507812 -0.890625 1.96875 -1.441406 C 1.417969 -1.980469 1.148438 -2.640625 1.148438 -3.417969 C 1.148438 -4.179688 1.417969 -4.839844 1.96875 -5.386719 C 2.507812 -5.929688 3.167969 -6.207031 3.9375 -6.207031 C 4.707031 -6.207031 5.367188 -5.929688 5.917969 -5.386719 C 6.457031 -4.839844 6.738281 -4.179688 6.738281 -3.417969 Z M 7.4375 -3.417969 C 7.4375 -3.898438 7.339844 -4.347656 7.160156 -4.777344 C 6.976562 -5.199219 6.726562 -5.570312 6.410156 -5.886719 C 6.089844 -6.199219 5.71875 -6.449219 5.296875 -6.628906 C 4.867188 -6.808594 4.417969 -6.910156 3.9375 -6.910156 C 3.460938 -6.910156 3 -6.808594 2.578125 -6.628906 C 2.160156 -6.449219 1.789062 -6.199219 1.46875 -5.886719 C 1.148438 -5.570312 0.898438 -5.199219 0.71875 -4.777344 C 0.539062 -4.347656 0.449219 -3.898438 0.449219 -3.417969 C 0.449219 -2.9375 0.539062 -2.480469 0.71875 -2.058594 C 0.898438 -1.628906 1.148438 -1.257812 1.46875 -0.941406 C 1.789062 -0.621094 2.160156 -0.371094 2.578125 -0.191406 C 3 -0.0117188 3.460938 0.078125 3.9375 0.078125 C 4.417969 0.078125 4.867188 -0.0117188 5.296875 -0.191406 C 5.71875 -0.371094 6.089844 -0.621094 6.410156 -0.941406 C 6.726562 -1.257812 6.976562 -1.628906 7.160156 -2.058594 C 7.339844 -2.480469 7.4375 -2.9375 7.4375 -3.417969 Z M 7.4375 -3.417969 "></path></g></g></g><g fill="#052a64" fill-opacity="1"><g transform="translate(208.152845, 241.30916)"><g><path d="M 7.457031 -3.179688 L 3.917969 -3.179688 L 3.917969 -2.570312 L 6.679688 -2.570312 C 6.46875 -1.980469 6.117188 -1.5 5.617188 -1.148438 C 5.117188 -0.789062 4.558594 -0.621094 3.949219 -0.621094 C 3.167969 -0.621094 2.507812 -0.890625 1.960938 -1.441406 C 1.417969 -1.988281 1.148438 -2.660156 1.148438 -3.429688 C 1.148438 -4.199219 1.417969 -4.859375 1.96875 -5.410156 C 2.507812 -5.949219 3.167969 -6.226562 3.949219 -6.226562 C 4.527344 -6.226562 5.058594 -6.058594 5.527344 -5.730469 C 6.007812 -5.398438 6.347656 -4.96875 6.566406 -4.417969 L 7.308594 -4.417969 C 7.078125 -5.167969 6.648438 -5.769531 6.027344 -6.226562 C 5.410156 -6.6875 4.6875 -6.929688 3.878906 -6.929688 C 3.4375 -6.929688 3.007812 -6.828125 2.589844 -6.648438 C 2.160156 -6.46875 1.789062 -6.21875 1.46875 -5.898438 C 1.148438 -5.578125 0.898438 -5.207031 0.71875 -4.789062 C 0.539062 -4.359375 0.449219 -3.898438 0.449219 -3.417969 C 0.449219 -2.9375 0.539062 -2.480469 0.71875 -2.058594 C 0.898438 -1.628906 1.148438 -1.257812 1.46875 -0.941406 C 1.789062 -0.621094 2.160156 -0.371094 2.589844 -0.191406 C 3.007812 -0.0117188 3.46875 0.078125 3.949219 0.078125 C 4.769531 0.078125 5.507812 -0.179688 6.167969 -0.710938 C 6.828125 -1.25 7.238281 -1.929688 7.386719 -2.757812 Z M 7.457031 -3.179688 "></path></g></g></g><g fill="#052a64" fill-opacity="1"><g transform="translate(218.329892, 241.30916)"><g><path d="M 1.449219 0 L 1.449219 -6.796875 L 0.75 -6.796875 L 0.75 0 Z M 1.449219 0 "></path></g></g></g><g fill="#052a64" fill-opacity="1"><g transform="translate(222.799188, 241.30916)"><g><path d="M 2.628906 -3.199219 C 3.507812 -2.988281 4.109375 -2.757812 4.429688 -2.5 C 4.648438 -2.320312 4.757812 -2.089844 4.757812 -1.808594 C 4.757812 -1.53125 4.699219 -1.300781 4.578125 -1.140625 C 4.277344 -0.71875 3.738281 -0.511719 2.980469 -0.511719 C 1.917969 -0.511719 1.320312 -0.871094 1.191406 -1.589844 L 0.371094 -1.589844 C 0.609375 -0.441406 1.480469 0.128906 2.980469 0.128906 C 3.648438 0.128906 4.207031 -0.0117188 4.660156 -0.308594 C 5.199219 -0.660156 5.480469 -1.179688 5.480469 -1.859375 C 5.480469 -2.417969 5.257812 -2.847656 4.820312 -3.148438 C 4.507812 -3.371094 4.007812 -3.570312 3.320312 -3.75 C 2.621094 -3.929688 2.167969 -4.078125 1.960938 -4.1875 C 1.5 -4.417969 1.269531 -4.738281 1.28125 -5.160156 C 1.28125 -5.378906 1.320312 -5.570312 1.417969 -5.707031 C 1.679688 -6.097656 2.140625 -6.296875 2.800781 -6.296875 C 3.730469 -6.296875 4.257812 -6 4.398438 -5.417969 L 5.160156 -5.417969 C 4.910156 -6.398438 4.117188 -6.898438 2.800781 -6.898438 C 2.199219 -6.898438 1.667969 -6.738281 1.230469 -6.417969 C 0.78125 -6.097656 0.550781 -5.628906 0.550781 -4.988281 C 0.550781 -4.117188 1.25 -3.519531 2.628906 -3.199219 Z M 2.628906 -3.199219 "></path></g></g></g><g fill="#052a64" fill-opacity="1"><g transform="translate(230.807087, 241.30916)"><g><path d="M 0.199219 -6.167969 L 1.847656 -6.167969 L 1.847656 -0.0195312 L 2.550781 -0.0195312 L 2.550781 -6.167969 L 4.199219 -6.167969 L 4.199219 -6.816406 L 0.199219 -6.816406 Z M 0.199219 -6.167969 "></path></g></g></g></svg>